<?xml version="1.0" standalone="no"?>
<!DOCTYPE svg PUBLIC "-//W3C//DTD SVG 20010904//EN"
 "http://www.w3.org/TR/2001/REC-SVG-20010904/DTD/svg10.dtd">
<svg version="1.0" xmlns="http://www.w3.org/2000/svg"
 width="718.000000pt" height="176.000000pt" viewBox="0 0 718.000000 176.000000"
 preserveAspectRatio="xMidYMid meet">

<g transform="translate(0.000000,176.000000) scale(0.100000,-0.100000)"
fill="#000000" stroke="none">
<path d="M1796 1394 c-65 -20 -134 -91 -161 -164 -29 -79 -27 -197 4 -267 75
-169 290 -218 478 -107 l43 25 0 109 0 110 -125 0 -125 0 0 -30 0 -29 83 -3
82 -3 3 -63 3 -63 -46 -20 c-60 -27 -139 -34 -195 -19 -60 16 -124 80 -140
140 -17 64 -8 175 19 228 71 138 292 148 348 14 12 -30 17 -33 41 -27 37 9 37
10 23 54 -31 106 -188 160 -335 115z"/>
<path d="M2440 1399 c-114 -35 -189 -149 -190 -290 0 -134 52 -231 154 -283
155 -80 341 0 391 166 19 66 19 160 0 225 -18 60 -81 135 -139 165 -48 24
-161 33 -216 17z m196 -84 c64 -37 94 -105 94 -211 0 -125 -36 -192 -122 -229
-107 -44 -233 13 -268 121 -8 22 -11 73 -8 129 3 80 7 98 31 134 58 88 176
113 273 56z"/>
<path d="M6173 1400 c-127 -30 -204 -144 -204 -303 0 -184 120 -304 301 -301
70 2 161 29 210 64 l30 21 0 110 0 109 -126 0 -125 0 3 -27 c3 -27 5 -28 68
-31 109 -4 110 -4 110 -66 0 -62 -12 -76 -83 -100 -60 -20 -122 -20 -178 -1
-91 33 -134 108 -134 235 1 90 32 162 85 198 102 68 244 45 287 -48 16 -36 21
-39 48 -34 17 4 31 8 33 9 8 8 -33 84 -61 113 -51 53 -166 76 -264 52z"/>
<path d="M763 1342 c-22 -59 -191 -497 -200 -519 -4 -9 7 -13 35 -13 l39 0 32
90 33 90 124 0 125 0 18 -42 c10 -24 26 -64 35 -90 17 -46 19 -48 57 -48 21 0
39 4 39 8 0 4 -34 91 -76 192 -41 102 -94 231 -116 288 l-41 102 -41 0 c-41 0
-41 -1 -63 -58z m115 -149 c27 -73 47 -135 44 -138 -9 -9 -192 -5 -192 4 0 4
17 55 38 112 22 57 42 117 46 133 4 15 9 27 11 25 2 -2 25 -64 53 -136z"/>
<path d="M1170 1106 l0 -296 185 0 185 0 0 30 0 30 -145 0 -145 0 -2 263 -3
262 -37 3 -38 3 0 -295z"/>
<path d="M2872 1368 l3 -33 95 -5 95 -5 3 -257 2 -258 35 0 35 0 0 260 0 259
98 3 97 3 0 30 0 30 -233 3 -233 2 3 -32z"/>
<path d="M3420 1106 l0 -296 35 0 34 0 3 133 3 132 72 0 c93 0 108 -11 202
-153 l75 -112 43 0 c24 0 43 2 43 5 0 15 -118 186 -153 222 -36 38 -38 43 -21
48 40 12 90 44 109 70 28 38 28 133 -1 171 -49 66 -58 69 -260 72 l-184 4 0
-296z m312 224 c64 -18 97 -86 68 -141 -21 -38 -62 -49 -190 -49 l-120 0 0 93
c0 52 3 97 7 100 10 11 194 8 235 -3z"/>
<path d="M4173 1383 c-4 -10 -55 -143 -114 -296 l-107 -278 40 3 41 3 31 88
31 87 126 0 127 0 33 -90 34 -90 42 0 43 0 -17 43 c-10 23 -63 155 -119 292
l-103 250 -40 3 c-32 2 -43 -1 -48 -15z m98 -190 c27 -71 49 -131 49 -135 0
-10 -187 -10 -194 0 -2 4 11 47 30 96 19 49 40 109 46 133 6 24 13 41 16 39 3
-3 27 -63 53 -133z"/>
<path d="M4560 1105 l0 -297 163 4 c175 4 197 10 249 65 53 55 73 118 73 228
0 107 -20 172 -68 223 -52 56 -90 66 -259 70 l-158 4 0 -297z m317 208 c19 -9
47 -34 61 -56 23 -34 28 -53 30 -127 5 -105 -9 -161 -51 -206 -37 -40 -106
-57 -209 -52 l-63 3 -3 228 -2 227 101 0 c73 0 111 -5 136 -17z"/>
<path d="M5177 1393 c-4 -3 -7 -136 -7 -295 l0 -288 40 0 40 0 0 295 0 295
-33 0 c-19 0 -37 -3 -40 -7z"/>
<path d="M5390 1105 l0 -295 35 0 35 0 0 225 c0 124 3 225 8 225 4 0 74 -102
157 -225 l149 -225 38 0 38 0 0 295 0 295 -35 0 -35 0 -2 -231 -3 -232 -154
232 -154 231 -39 0 -38 0 0 -295z"/>
<path d="M5255 605 c-14 -13 -25 -33 -25 -44 0 -21 44 -61 66 -61 8 0 32 -7
54 -16 35 -14 41 -20 38 -43 -7 -59 -118 -50 -141 11 -3 9 -8 10 -15 3 -20
-18 10 -59 54 -74 69 -24 134 9 134 67 0 38 -24 57 -89 74 -63 15 -84 39 -59
64 24 25 74 22 103 -6 28 -26 40 -22 30 10 -14 45 -111 55 -150 15z"/>
<path d="M5470 615 c0 -8 7 -15 15 -15 8 0 15 7 15 15 0 8 -7 15 -15 15 -8 0
-15 -7 -15 -15z"/>
<path d="M5737 603 c-4 -3 -7 -15 -7 -25 0 -10 -4 -18 -10 -18 -5 0 -10 -7
-10 -15 0 -8 5 -15 10 -15 6 0 10 -29 10 -68 0 -40 5 -73 12 -80 17 -17 48
-15 48 3 0 8 -7 15 -15 15 -12 0 -15 14 -15 64 0 48 4 65 15 70 8 3 15 10 15
16 0 5 -7 10 -15 10 -9 0 -15 9 -15 25 0 24 -10 32 -23 18z"/>
<path d="M5470 465 c0 -73 3 -96 13 -92 8 2 12 30 12 92 0 62 -4 90 -12 93
-10 3 -13 -20 -13 -93z"/>
<path d="M5573 550 c-24 -10 -37 -39 -27 -63 3 -9 25 -22 48 -29 56 -16 69
-27 55 -44 -15 -18 -54 -18 -73 1 -16 16 -36 20 -36 7 0 -20 28 -43 60 -48 40
-7 90 24 90 56 0 23 -11 30 -70 50 -54 18 -61 43 -12 48 22 2 34 -2 38 -12 6
-16 34 -23 34 -8 0 34 -65 60 -107 42z"/>
<path d="M5860 547 c-34 -17 -53 -61 -46 -101 8 -42 34 -65 79 -73 30 -4 40
-1 63 23 31 30 17 49 -15 20 -25 -23 -67 -20 -85 6 -8 12 -13 25 -10 30 3 4
34 8 70 8 69 0 75 6 53 53 -11 24 -47 47 -72 47 -7 0 -23 -6 -37 -13z m80 -32
c19 -22 3 -35 -46 -35 -45 0 -57 13 -32 38 17 17 63 15 78 -3z"/>
<path d="M6024 547 c-3 -8 -4 -49 -2 -93 2 -62 6 -79 18 -79 11 0 16 15 18 65
3 69 13 90 43 90 27 0 39 -31 39 -99 0 -84 16 -77 22 10 6 74 16 91 53 87 17
-3 21 -12 25 -78 4 -58 8 -75 20 -75 18 0 25 58 15 123 -8 55 -42 75 -85 50
-26 -15 -30 -15 -51 0 -18 12 -28 13 -53 4 -20 -8 -32 -9 -34 -2 -5 14 -22 12
-28 -3z"/>
<path d="M6346 539 c-27 -21 -34 -39 -15 -39 6 0 17 7 26 16 20 19 78 15 78
-6 0 -14 -20 -23 -78 -35 -35 -7 -54 -44 -38 -74 15 -28 54 -36 93 -20 24 10
33 10 36 1 2 -7 9 -12 16 -12 8 0 10 22 8 78 -3 62 -7 80 -24 95 -27 23 -69
22 -102 -4z m94 -94 c0 -40 -64 -61 -90 -30 -17 21 2 43 43 48 18 2 35 5 40 5
4 1 7 -9 7 -23z"/>
</g>
</svg>
